<svg width="320" height="70" viewBox="0 0 320 70" fill="none" xmlns="http://www.w3.org/2000/svg">
<path d="M24.6023 69.5511C19.9376 69.5511 15.753 68.4911 12.0361 66.365C8.31926 64.1828 5.36948 61.2336 3.18676 57.5176C1.06018 53.8016 0 49.5805 0 44.8606C0 40.1407 1.03523 36.0132 3.09946 32.2971C5.22605 28.5811 8.08852 25.6631 11.6869 23.537C15.2852 21.3548 19.3576 20.2637 23.9039 20.2637C27.8577 20.2637 31.4249 21.1178 34.6116 22.8325C37.7984 24.4847 40.3678 26.6981 42.3135 29.4665V3.44794C42.3135 2.38799 42.6378 1.55874 43.2864 0.972655C43.9349 0.324218 44.7644 0 45.7622 0C46.76 0 47.5894 0.324218 48.238 0.972655C48.8866 1.56498 49.2109 2.38799 49.2109 3.44794V45.216C49.0924 49.8174 47.9449 53.9761 45.756 57.6922C43.6294 61.3521 40.7108 64.2389 36.9939 66.365C33.3332 68.4911 29.2047 69.5511 24.6023 69.5511ZM24.6023 63.3535C28.0261 63.3535 31.0632 62.5554 33.7198 60.9655C36.4326 59.3133 38.5592 57.0999 40.0934 54.3315C41.6836 51.557 42.4819 48.4021 42.4819 44.8606C42.4819 41.3191 41.6836 38.2515 40.0934 35.4832C38.5592 32.6525 36.4326 30.4391 33.7198 28.8492C31.0632 27.2593 28.0261 26.4612 24.6023 26.4612C21.1786 26.4612 18.1976 27.2593 15.4848 28.8492C12.772 30.4391 10.6142 32.6525 9.02397 35.4832C7.43371 38.2578 6.63546 41.3815 6.63546 44.8606C6.63546 48.3397 7.43371 51.557 9.02397 54.3315C10.6142 57.1061 12.772 59.3195 15.4848 60.9655C18.1976 62.5554 21.2409 63.3535 24.6023 63.3535ZM86.473 69.5511C81.9267 69.5511 77.8606 68.4911 74.256 66.365C70.6576 64.1828 67.7952 61.2336 65.6686 57.5176C63.6043 53.8016 62.5691 49.6117 62.5691 44.9541C62.5691 40.2966 63.6293 36.0132 65.7559 32.2971C67.9386 28.5811 70.8884 25.6631 74.6052 23.537C78.3221 21.3548 82.5129 20.2637 87.1714 20.2637C91.83 20.2637 95.9958 21.3548 99.6503 23.537C103.367 25.6631 106.286 28.5811 108.412 32.2971C110.595 36.0132 111.718 40.2343 111.774 44.9541L109.03 47.0803C109.03 51.3263 108.026 55.1608 106.018 58.5838C104.072 61.9444 101.384 64.6317 97.9603 66.6394C94.5989 68.5847 90.7636 69.5573 86.4543 69.5573L86.473 69.5511ZM87.1839 63.3535C90.6077 63.3535 93.6447 62.5554 96.3014 60.9655C99.0142 59.3756 101.141 57.1871 102.675 54.4188C104.265 51.5881 105.063 48.4332 105.063 44.9479C105.063 41.4625 104.265 38.2515 102.675 35.477C101.141 32.7024 99.0142 30.5202 96.3014 28.9303C93.6447 27.278 90.6077 26.455 87.1839 26.455C83.7602 26.455 80.7792 27.278 78.0664 28.9303C75.3536 30.5202 73.1958 32.7087 71.6056 35.477C70.0153 38.2515 69.217 41.4064 69.217 44.9479C69.217 48.4894 70.0153 51.5819 71.6056 54.4188C73.1958 57.1934 75.3536 59.3756 78.0664 60.9655C80.7792 62.5554 83.8225 63.3535 87.1839 63.3535ZM108.338 69.1084C107.333 69.1084 106.51 68.8154 105.862 68.223C105.213 67.5746 104.889 66.7453 104.889 65.7478V50.6155L106.573 43.6261L111.792 44.9541V65.7478C111.792 66.7516 111.468 67.5746 110.82 68.223C110.171 68.8154 109.342 69.1084 108.344 69.1084H108.338Z" fill="#A97555"/>
<path d="M203.89 69.1082C200.76 69.1082 197.96 68.3725 195.484 66.8948C193.064 65.4171 191.15 63.4157 189.728 60.8781C188.312 58.2843 187.601 55.3352 187.601 52.0307V8.75372C187.601 7.74989 187.894 6.92688 188.487 6.27844C189.135 5.63 189.958 5.30579 190.962 5.30579C191.966 5.30579 192.79 5.63 193.438 6.27844C194.087 6.92688 194.411 7.75613 194.411 8.75372V52.0244C194.411 55.0359 195.297 57.5112 197.068 59.4565C198.839 61.3457 201.109 62.2872 203.884 62.2872H206.273C207.214 62.2872 207.981 62.6114 208.574 63.2598C209.166 63.9083 209.459 64.7375 209.459 65.7351C209.459 66.7327 209.104 67.562 208.399 68.2104C207.688 68.8027 206.809 69.0958 205.743 69.0958H203.884L203.89 69.1082ZM181.851 28.4001C180.966 28.4001 180.23 28.132 179.637 27.602C179.045 27.0097 178.752 26.3052 178.752 25.4759C178.752 24.5905 179.045 23.886 179.637 23.3498C180.23 22.7575 180.966 22.4644 181.851 22.4644H204.42C205.306 22.4644 206.042 22.7575 206.634 23.3498C207.227 23.8798 207.52 24.5905 207.52 25.4759C207.52 26.2989 207.227 27.0097 206.634 27.602C206.042 28.132 205.306 28.4001 204.42 28.4001H181.851ZM242.512 69.5509C237.735 69.5509 233.482 68.5159 229.765 66.4521C226.104 64.326 223.217 61.408 221.09 57.692C219.026 53.976 217.991 49.7299 217.991 44.9477C217.991 40.1655 218.964 35.8634 220.909 32.2034C222.917 28.4874 225.661 25.5694 229.141 23.4433C232.621 21.3172 236.637 20.2572 241.177 20.2572C245.717 20.2572 249.559 21.2922 252.864 23.356C256.226 25.3637 258.826 28.1632 260.653 31.7608C262.481 35.3583 263.397 39.461 263.397 44.0624C263.397 45.0038 263.104 45.7707 262.512 46.3631C261.919 46.893 261.152 47.1611 260.211 47.1611H222.593V41.4998H260.922L257.117 44.2432C257.18 40.8202 256.556 37.7526 255.259 35.0404C253.962 32.3281 252.103 30.202 249.684 28.6682C247.32 27.1344 244.489 26.3675 241.184 26.3675C237.878 26.3675 234.872 27.1656 232.334 28.7555C229.796 30.3454 227.819 32.5588 226.403 35.3895C225.044 38.1641 224.37 41.3501 224.37 44.9477C224.37 48.5453 225.138 51.7314 226.672 54.5059C228.262 57.2805 230.42 59.4627 233.133 61.0527C235.845 62.6426 238.976 63.4407 242.512 63.4407C244.639 63.4407 246.759 63.0852 248.885 62.3807C251.068 61.6138 252.808 60.6723 254.105 59.55C254.754 59.0201 255.49 58.752 256.319 58.752C257.142 58.6896 257.853 58.9016 258.446 59.3692C259.213 60.08 259.599 60.8469 259.599 61.6699C259.662 62.4929 259.331 63.2037 258.627 63.796C256.681 65.4483 254.199 66.8325 251.193 67.9548C248.181 69.0147 245.293 69.5447 242.518 69.5447L242.512 69.5509ZM294.535 69.5509C289.989 69.5509 285.917 68.491 282.318 66.3648C278.72 64.1826 275.858 61.2335 273.731 57.5174C271.667 53.8014 270.632 49.6115 270.632 44.954C270.632 40.2964 271.692 36.013 273.818 32.297C276.001 28.5809 278.951 25.663 282.668 23.5368C286.385 21.3546 290.575 20.2635 295.234 20.2635C299.892 20.2635 304.052 21.3546 307.713 23.5368C311.43 25.663 314.348 28.5809 316.475 32.297C318.658 36.013 319.78 40.2341 319.836 44.954L317.092 47.0801C317.092 51.3261 316.088 55.1606 314.08 58.5836C312.134 61.9443 309.446 64.6315 306.023 66.6392C302.661 68.5845 298.826 69.5572 294.517 69.5572L294.535 69.5509ZM295.246 63.3534C298.67 63.3534 301.707 62.5553 304.364 60.9654C307.077 59.3754 309.203 57.187 310.737 54.4186C312.328 51.588 313.126 48.4331 313.126 44.9477C313.126 41.4624 312.328 38.2514 310.737 35.4768C309.203 32.7022 307.077 30.52 304.364 28.9301C301.707 27.2778 298.67 26.4548 295.246 26.4548C291.823 26.4548 288.842 27.2778 286.129 28.9301C283.416 30.52 281.258 32.7085 279.668 35.4768C278.078 38.2514 277.279 41.4063 277.279 44.9477C277.279 48.4892 278.078 51.5817 279.668 54.4186C281.258 57.1932 283.416 59.3754 286.129 60.9654C288.842 62.5553 291.885 63.3534 295.246 63.3534ZM316.4 69.1082C315.396 69.1082 314.573 68.8152 313.924 68.2229C313.276 67.5744 312.951 66.7452 312.951 65.7476V50.6153L314.635 43.6259L319.855 44.954V65.7476C319.855 66.7514 319.531 67.5744 318.882 68.2229C318.233 68.8152 317.404 69.1082 316.406 69.1082H316.4Z" fill="#A7CF5D"/>
<path fill-rule="evenodd" clip-rule="evenodd" d="M141.109 21.1052C134.942 22.6016 127.988 27.9387 125.082 33.4005C123.485 36.4058 122.057 42.011 122.057 45.2844C122.057 48.5577 123.485 54.163 125.082 57.1682C126.597 60.0114 131.911 65.4171 134.68 66.9322L136.706 68.0358L135.921 66.9322C134 64.2325 133.183 62.1001 132.977 59.2258C132.69 55.2292 133.688 52.305 136.351 49.3371C139.213 46.151 141.989 44.8417 146.853 44.3803C151.505 43.9439 153.588 43.0024 156.201 40.1655C161.689 34.2048 159.65 25.0706 152.042 21.5229C149.441 20.3071 145.082 20.145 141.109 21.1052ZM134.368 27.0658C134.53 27.2279 133.42 28.6869 131.898 30.308C130.308 32.0101 128.574 34.4667 127.807 36.1127C126.491 38.9247 125.207 39.8662 125.207 38.0082C125.207 36.4058 127.913 31.8543 130.42 29.2418C132.64 26.9286 133.663 26.3613 134.362 27.0596L134.368 27.0658ZM149.902 28.3814C151.168 29.2668 152.254 31.343 152.254 32.8706C152.254 37.129 146.984 39.6417 143.753 36.9171C140.966 34.5727 141.041 30.9253 143.922 28.6557C145.412 27.4836 148.418 27.3401 149.902 28.3814ZM125.774 41.3314C126.08 42.2355 125.606 43.4762 124.957 43.4762C124.047 43.4762 123.76 42.6969 124.302 41.6806C124.857 40.6456 125.493 40.4959 125.774 41.3314Z" fill="#A97555"/>
<path fill-rule="evenodd" clip-rule="evenodd" d="M158.571 24.5594C162.338 29.7656 161.882 36.6365 157.442 41.5559C155.035 44.2244 151.755 45.6834 147.215 46.1136C143.03 46.5064 141.009 47.2172 138.833 49.0565C136.376 51.1328 135.029 53.9198 134.773 57.4488C134.58 60.1735 134.705 60.8718 135.765 63.0478C138.228 68.0857 142.531 70.3614 148.824 69.9499C153.239 69.6631 156.8 68.4037 160.928 65.679C167.782 61.1586 171.617 53.8263 171.617 45.2407C171.617 36.6552 168.019 29.7406 161.128 24.896C159.388 23.674 157.798 22.6764 157.586 22.6764C157.374 22.6764 157.816 23.5243 158.571 24.5656V24.5594ZM144.502 30.2332C143.435 31.4739 143.236 32.4715 143.753 33.9555C144.639 36.4931 147.888 37.0979 149.516 35.0279C150.751 33.4567 150.707 31.6485 149.41 30.4265C148.113 29.2044 145.475 29.1046 144.508 30.2332H144.502ZM169.603 48.4019C169.603 48.9817 169.347 49.5429 169.042 49.6426C168.35 49.8733 167.832 48.6575 168.206 47.6849C168.605 46.6498 169.609 47.1611 169.609 48.4019H169.603ZM168.724 52.0431C169.659 53.5644 162.35 63.7461 160.317 63.7461C158.92 63.7461 159.326 62.8857 161.895 60.3481C163.435 58.8267 164.882 56.7879 165.836 54.7803C167.283 51.7438 168.075 50.9956 168.717 52.0431H168.724ZM149.566 53.1467C151.998 54.4062 152.908 57.561 151.58 60.1299C150.62 61.9879 149.179 62.8421 147.003 62.8421C143.379 62.8421 140.704 59.1447 142.032 55.9587C143.348 52.8038 146.579 51.6004 149.559 53.1467H149.566Z" fill="#A7CF5D"/>
<path fill-rule="evenodd" clip-rule="evenodd" d="M145.113 54.5745C144.128 54.986 143.142 57.4613 143.454 58.7394C144.084 61.3332 147.682 62.2248 149.497 60.2296C152.191 57.2742 148.886 53.0033 145.113 54.5683V54.5745Z" fill="#A97555"/>
</svg>
