<?xml version="1.0" encoding="UTF-8"?><svg id="Capa_1" xmlns="http://www.w3.org/2000/svg" viewBox="0 0 385.91 730.85"><defs><style>.cls-1{fill:#eaeaea;}.cls-2{fill:#ede6dd;}.cls-3{fill:#e8e8e8;}.cls-4{fill:#7f7f7f;}.cls-5{fill:#684437;}.cls-6{fill:#999;}.cls-7{fill:#a0bb6a;}.cls-8{fill:#a07665;}.cls-9{fill:#b7b7b7;}.cls-10{fill:#8d6451;}.cls-11{fill:#8fa35f;}.cls-12{fill:#bad37f;}.cls-13{fill:#bfbfbf;}.cls-14{fill:#aa8679;}.cls-15{fill:#c9b8a6;}.cls-16{fill:#d7d7d7;}.cls-17{fill:#c8c8c8;}.cls-18{fill:#6d6d6d;}.cls-19{fill:#755146;}.cls-20{fill:#7a5749;}.cls-21{fill:#775142;}</style></defs><path class="cls-5" d="m318.75,690.02v-24.33c0-22.55-47.55-40.83-106.2-40.83s-106.2,18.28-106.2,40.83h0v24.33c0,22.55,47.55,40.83,106.2,40.83s106.2-18.28,106.2-40.83Z"/><path class="cls-19" d="m153.44,683.25c0-22.55,47.55-40.83,106.2-40.83,16.78,0,32.65,1.5,46.76,4.16-17.83-12.92-53.17-21.72-93.87-21.72-58.65,0-106.2,18.28-106.2,40.83h0v24.33c0,16.1,24.23,30.02,59.44,36.67-7.87-5.7-12.33-12.21-12.33-19.11v-24.32h0Z"/><path class="cls-10" d="m210.51,707.76c96.87,0,175.4-92.75,175.4-174.45,0-31.45-11.64-60.59-31.47-84.56-3.32-5.07-27.79-44.43-19.58-90.92,8.8-49.84-101.82-28.63-106.85-28.63-2.12,0-9.68,5.25-17.55,12.13-7.87-6.88-15.43-12.13-17.55-12.13-5.03,0-115.65-21.21-106.85,28.63,8.8,49.84-19.95,91.48-19.95,91.48h0c-19.55,23.87-31.01,52.81-31.01,84.01,0,81.71,78.53,174.45,175.4,174.45Z"/><path class="cls-8" d="m293.52,336.9c1.64,0,14.5-2.25,30.79-3.57-26.62-16.59-92.46-4.14-96.31-4.14-1.09,0-3.63,1.4-6.9,3.69,19.27,1.14,35.46,4.02,37.32,4.02,2.12,0,9.68,5.25,17.55,12.13,7.87-6.88,15.43-12.13,17.55-12.13Z"/><path class="cls-8" d="m210.51,707.76c5.11,0,10.17-.27,15.17-.77-72.33-24.68-125.05-99.03-125.05-165.97,0-31.2,11.46-60.14,31.01-84h0s28.75-41.65,19.95-91.49c-4.37-24.77,20.75-31.99,47.75-32.98-3.04-2.09-5.38-3.35-6.42-3.35-5.03,0-115.65-21.21-106.85,28.63,8.8,49.84-19.95,91.48-19.95,91.48h0c-19.55,23.87-31.01,52.81-31.01,84.01,0,81.71,78.53,174.45,175.4,174.45Z"/><path class="cls-14" d="m327.69,335.78c-23.89-20.19-95.65-6.59-99.68-6.59-1.77,0-7.37,3.69-13.77,8.93,3,1.14,9.61,5.89,16.45,11.87,7.87-6.88,15.43-12.13,17.55-12.13,3.18,0,48.71-8.5,79.45-2.09Z"/><path class="cls-14" d="m158.49,698.72c-60.83-30.82-103.15-96.75-103.15-156.73,0-31.2,11.46-60.14,31.01-84h0s28.75-41.65,19.95-91.49c-7.53-42.65,72.41-33.27,98.77-29.67-5.7-4.54-10.53-7.63-12.15-7.63-5.03,0-115.65-21.21-106.85,28.63,8.8,49.84-19.95,91.48-19.95,91.48h0c-19.55,23.87-31.01,52.81-31.01,84.01,0,66.43,51.91,140.16,123.38,165.41Z"/><path class="cls-20" d="m107.16,403.38c2.12,0,9.68,5.25,17.55,12.13,7.87-6.88,15.43-12.13,17.55-12.13,5.03,0,115.65-21.21,106.85,28.63-8.21,46.5,16.26,85.86,19.58,90.92,19.83,23.97,31.47,53.12,31.47,84.56,0,29.24-10.06,59.9-27.42,87.22,66.15-28.36,113.17-98.18,113.17-161.4,0-31.45-11.64-60.59-31.47-84.56-3.32-5.07-27.79-44.43-19.58-90.92,8.8-49.84-101.82-28.63-106.85-28.63-2.12,0-9.68,5.25-17.55,12.13-7.87-6.88-15.43-12.13-17.55-12.13-5.03,0-115.65-21.21-106.85,28.63,2.72,15.39,1.85,30-.64,42.84,11.81,1.25,20.42,2.72,21.74,2.72Z"/><path class="cls-21" d="m166.45,326.01c.96.79,1.92,1.62,2.9,2.47.77-.67,1.53-1.32,2.28-1.95-1.67-.18-3.4-.35-5.18-.52Z"/><path class="cls-21" d="m169.4,694.92c-8.67,0-17.19-.75-25.52-2.17,20.54,9.5,43.04,15.01,66.63,15.01,96.87,0,175.4-92.75,175.4-174.45,0-31.45-11.64-60.59-31.47-84.56-3.32-5.07-27.79-44.43-19.58-90.92,4.29-24.3-19.8-31.71-46.21-32.92,4.53,4.86,6.63,11.39,5.1,20.07-8.21,46.5,16.26,85.86,19.58,90.92,19.83,23.97,31.47,53.12,31.47,84.56,0,81.71-78.53,174.46-175.4,174.46Z"/><path class="cls-21" d="m210.83,431.31c56.6,0,105.05-11.67,125.17-28.21-2.86-13.42-4.03-28.9-1.14-45.28.08-.45.14-.88.2-1.32l-8.83-2.06-17.65.32c-24.54-8.62-59.12-14-97.45-14.02-.23.19-.45.39-.68.58-.22-.2-.45-.39-.67-.58-43.32.11-81.78,7.05-106.28,17.77l-17.28.33c2.63,15.78,1.53,30.71-1.19,43.73,19.72,16.82,68.61,28.73,125.8,28.73Z"/><path class="cls-5" d="m346.74,637.07c3.93-4.98,7.61-10.13,11.01-15.41-34.41,17.93-87.43,29.42-146.92,29.42s-113.52-11.71-147.89-29.93c3.4,5.3,7.07,10.46,11,15.47,34.25,15.15,82.91,24.61,136.9,24.61s101.71-9.28,135.91-24.17Z"/><path class="cls-5" d="m374.84,588.49c1.82-4.63,3.43-9.29,4.82-13.98-30.5,25.94-94.64,43.81-168.83,43.81s-139.54-18.21-169.69-44.55c1.37,4.7,2.96,9.39,4.76,14.04,31.86,24.23,93.77,40.67,164.92,40.67s131.9-16.14,164.01-40Z"/><path class="cls-2" d="m119.45,564.83c5.63,4.71,8.46,7.06,14.12,11.77-5.42,4.71-8.11,7.06-13.41,11.77,5.48,4.5,8.23,6.75,13.7,11.26-5.02,4.5-7.49,6.75-12.36,11.25,5.78,4.7,8.67,7.04,14.4,11.73-5.02,4.69-7.49,7.03-12.32,11.72,5.64,4.56,8.45,6.83,14,11.38-4.63,4.55-6.9,6.82-11.3,11.36,5.78,4.67,8.64,7,14.29,11.66-4.46,4.66-6.63,6.98-10.81,11.63,5.47,4.45,8.17,6.67,13.48,11.11-.22.25-.42.48-.63.72,20.88,9.86,43.82,15.59,67.89,15.59,28.77,0,55.92-8.18,79.87-21.82,2.04-1.68,4.09-3.36,6.85-5.6-4.18-4.65-6.35-6.97-10.81-11.63,5.65-4.66,8.51-6.99,14.29-11.66-4.4-4.54-6.67-6.81-11.3-11.36,5.56-4.55,8.36-6.82,14-11.38-4.82-4.68-7.29-7.03-12.32-11.72,5.73-4.69,8.62-7.04,14.4-11.73-4.87-4.5-7.35-6.75-12.36-11.25,5.48-4.5,8.22-6.75,13.7-11.26-5.3-4.7-7.99-7.06-13.41-11.77,5.66-4.71,8.49-7.06,14.12-11.77-6.21-5.33-9.34-7.99-15.64-13.32,6.29-5.33,9.41-7.99,15.6-13.32-5.64-4.71-8.48-7.06-14.15-11.77,5.4-4.71,8.08-7.06,13.36-11.76-5.49-4.5-8.24-6.75-13.72-11.25,4.99-4.5,7.46-6.75,12.3-11.24-5.79-4.7-8.67-7.04-14.41-11.73,5-4.69,7.45-7.03,12.24-11.72-5.64-4.55-8.44-6.83-14-11.38,4.6-4.55,6.85-6.82,11.22-11.36-5.77-4.67-8.63-7-14.27-11.65,4.43-4.66,6.58-6.98,10.72-11.62-5.46-4.45-8.15-6.67-13.45-11.1,3.9-4.43,5.79-6.65,9.39-11.07-5.6-4.62-8.35-6.93-13.73-11.53,3.7-4.61,5.47-6.9,8.8-11.49-9.65-8.12-19.12-16.47-28.32-25.1-6.08,8.7-12.87,17.17-19.91,25.1,2.08,2,3.13,3,5.26,5h-62.7c2.13-2,3.18-3,5.26-5-7.05-7.93-13.83-16.4-19.91-25.1-9.2,8.64-18.67,16.98-28.32,25.1,3.34,4.59,5.1,6.89,8.8,11.49-5.38,4.61-8.13,6.91-13.73,11.53,3.61,4.42,5.49,6.64,9.4,11.07-5.3,4.43-7.99,6.65-13.45,11.1,4.14,4.64,6.29,6.97,10.72,11.62-5.64,4.66-8.5,6.99-14.27,11.65,4.37,4.54,6.62,6.81,11.22,11.36-5.55,4.55-8.36,6.82-14,11.38,4.79,4.68,7.25,7.03,12.24,11.72-5.73,4.69-8.62,7.04-14.41,11.73,4.85,4.49,7.31,6.74,12.3,11.24-5.48,4.5-8.23,6.75-13.72,11.25,5.28,4.7,7.96,7.06,13.36,11.76-5.67,4.71-8.5,7.06-14.15,11.77,5.63,4.85,8.48,7.28,14.2,12.13,0,.95,0,1.43,0,2.38-5.73,4.85-8.59,7.28-14.24,12.13Z"/><path class="cls-15" d="m129.68,653.59c24.56,4.9,52.08,7.65,81.15,7.65,30.83,0,59.92-3.09,85.59-8.56-2.15-2.18-4.12-4.13-7.02-6.98,1.03-.84,1.96-1.6,2.83-2.32-24.63,4.93-52.23,7.7-81.4,7.7-26.45,0-51.62-2.27-74.44-6.37.39.32.79.65,1.21.99-3.29,3.23-5.4,5.33-7.92,7.89Z"/><path class="cls-15" d="m293.68,620.49c4.15-3.39,6.97-5.68,11.81-9.62-1.01-.93-1.9-1.75-2.74-2.52-27.17,6.35-58.52,9.98-91.92,9.98-31.66,0-61.47-3.26-87.64-9.01-.53.49-1.09,1.01-1.69,1.55,5.47,4.44,8.35,6.78,13.49,10.99,23.19,4.26,48.85,6.63,75.84,6.63,29.74,0,57.86-2.88,82.85-8Z"/><path class="cls-5" d="m267.59,719.35c16.53-112.03,16.35-224.86-.58-336.84h-5.17c15.31,112.03,15.47,224.76.52,336.84h5.22Z"/><path class="cls-5" d="m157.63,382.51c-17.68,111.95-17.87,224.83-.61,336.84h5.22c-15.67-112.05-15.5-224.83.55-336.84h-5.17Z"/><path class="cls-5" d="m219.59,389.49c.12,6.96.17,10.45.28,17.44h11.99c-.3-7.03-.46-10.54-.81-17.53h-11.46c-.12-6.96-.18-10.43-.31-17.35h-10.88c-.11,6.92-.17,10.4-.27,17.35h-11.46c-.33,7-.48,10.5-.77,17.53h11.99c.09-6.99.14-10.48.24-17.44h11.46Z"/><path class="cls-5" d="m243.84,406.93h-11.99c.3,7.03.45,10.55.71,17.61h12.45c-.44-7.06-.68-10.58-1.18-17.61Z"/><path class="cls-5" d="m183.91,406.93c-.49,7.03-.72,10.55-1.15,17.61h12.45c.26-7.06.39-10.58.68-17.61h-11.99Z"/><path class="cls-5" d="m170.31,424.54c-.6,7.06-.88,10.59-1.4,17.68h12.86c.37-7.08.57-10.62,1-17.68h-12.45Z"/><path class="cls-5" d="m181.77,442.22c-.37,7.08-.54,10.63-.85,17.74h13.2c.18-7.1.29-10.65.51-17.74-5.14,0-7.71,0-12.86,0Z"/><path class="cls-5" d="m246.05,442.22c-5.14,0-7.71,0-12.86,0,.23,7.08.33,10.63.53,17.74h13.2c-.32-7.1-.49-10.65-.87-17.74Z"/><path class="cls-5" d="m233.72,459.95h-13.2c.07,7.1.1,10.66.15,17.78h13.48c-.16-7.12-.24-10.68-.44-17.78Z"/><path class="cls-5" d="m194.12,459.95c-.18,7.1-.27,10.66-.42,17.78h13.48c.05-7.12.07-10.68.13-17.78h-13.2Z"/><path class="cls-5" d="m207.18,477.74c-.05,7.12-.07,10.69-.1,17.82h13.71c-.04-7.14-.06-10.7-.12-17.82h-13.48Z"/><path class="cls-5" d="m257.47,424.54h-12.45c.44,7.06.65,10.59,1.02,17.68h12.86c-.53-7.08-.82-10.62-1.43-17.68Z"/><path class="cls-5" d="m207.72,422.92c-.1,8.59-.15,12.9-.23,21.53h14.34c-.12-8.63-.18-12.94-.32-21.53h-13.8Z"/><path class="cls-5" d="m220.89,519c.02,7.11.03,10.67.04,17.78h13.99c-.03-7.15-.06-10.73-.13-17.88h-13.91c-.02-7.11-.04-10.66-.08-17.77h-13.77c-.03,7.1-.05,10.66-.07,17.77h-13.91c-.07,7.15-.09,10.73-.12,17.88h13.99c.01-7.12.02-10.67.04-17.78h13.91Z"/><path class="cls-5" d="m248.99,554.67c0-7.16,0-10.73-.06-17.89h-13.99c.03,7.15.04,10.73.04,17.89h14.02Z"/><path class="cls-5" d="m178.96,536.78c-.05,7.15-.07,10.73-.06,17.89h14.02c0-7.16,0-10.73.03-17.89h-13.99Z"/><path class="cls-5" d="m178.9,554.67h-14.02c0,7.16.03,10.73.13,17.89h13.98c-.07-7.15-.08-10.73-.09-17.89Z"/><path class="cls-5" d="m192.97,572.55h-13.98c.07,7.15.11,10.73.24,17.88h13.88c-.07-7.15-.1-10.72-.14-17.88Z"/><path class="cls-5" d="m234.91,572.55c-.04,7.15-.07,10.73-.15,17.88h13.88c.13-7.15.18-10.72.25-17.88h-13.98Z"/><path class="cls-5" d="m220.88,590.43c-.03,7.15-.04,10.72-.08,17.86h13.73c.11-7.14.16-10.71.24-17.86h-13.88Z"/><path class="cls-5" d="m207,590.43h-13.88c.07,7.15.12,10.72.23,17.86h13.73c-.04-7.14-.05-10.71-.07-17.86Z"/><path class="cls-5" d="m220.8,608.28h-13.73c.04,7.14.06,10.7.1,17.83h13.51c.05-7.12.08-10.69.12-17.83Z"/><path class="cls-5" d="m248.99,554.67c0,7.16-.02,10.73-.09,17.89h13.98c.09-7.15.12-10.73.13-17.89h-14.02Z"/><path class="cls-5" d="m222.56,553.02h-15.58c0,8.71,0,13.07.02,21.78h15.53c.02-8.71.03-13.07.03-21.78Z"/><path class="cls-5" d="m194.69,665.59h12.81c-.07-7.04-.1-10.57-.16-17.63h13.16c-.07,7.06-.11,10.59-.19,17.63h12.81c.23-7.08.34-10.63.54-17.73-5.26,0-7.9,0-13.16,0,.07-7.06.1-10.6.15-17.68h-13.45c.05,7.08.08,10.62.14,17.68-5.26,0-7.9,0-13.16,0,.19,7.1.29,10.65.52,17.73Z"/><path class="cls-5" d="m233.12,665.59c-.23,7.08-.36,10.62-.63,17.67,4.96,0,7.44,0,12.4,0,.45-7.05.66-10.59,1.04-17.67h-12.81Z"/><path class="cls-5" d="m194.69,665.59h-12.81c.38,7.08.58,10.62,1.02,17.67,4.96,0,7.44,0,12.4,0-.26-7.06-.38-10.59-.61-17.67Z"/><path class="cls-5" d="m182.9,683.26h-12.4c.61,7.06.94,10.58,1.64,17.6h11.92c-.5-7.03-.73-10.55-1.17-17.6Z"/><path class="cls-5" d="m195.99,700.87h-11.92c.12,1.72.23,3.23.33,4.64,3.91.68,7.87,1.21,11.86,1.58-.08-1.85-.16-3.83-.27-6.22Z"/><path class="cls-5" d="m231.76,700.87c-.09,2.05-.17,3.8-.24,5.43,4.02-.56,7.99-1.28,11.92-2.14.07-1.02.15-2.1.24-3.29h-11.92Z"/><path class="cls-5" d="m244.88,683.26c-.45,7.06-.69,10.58-1.2,17.6h11.92c.71-7.03,1.04-10.55,1.67-17.6h-12.4Z"/><path class="cls-5" d="m221.53,681.64h-13.82c.1,8.59.15,12.88.27,21.43h13.18c.16-8.55.24-12.84.37-21.43Z"/><path class="cls-17" d="m345.94,368.04v-26.98l-19.7-4.6-17.65.32c-24.6-8.64-59.3-14.03-97.76-14.03-43.74,0-82.63,6.97-107.32,17.78l-27.79.53v26.98c0,25.01,60.49,45.29,135.11,45.29s135.11-20.28,135.11-45.29Z"/><path class="cls-9" d="m336.09,368.04v-26.98l-.86-.2v20.33c0,25.01-60.49,45.29-135.11,45.29-47.91,0-89.99-8.36-113.98-20.97,19.8,15.86,65.74,27.14,119.76,27.79,72.34-.87,130.18-20.8,130.18-45.25Z"/><path class="cls-4" d="m309.09,399.12c22.84-8.11,36.85-19.05,36.85-31.08v-26.98l-19.7-4.6-17.65.32c-24.6-8.64-59.3-14.03-97.76-14.03-43.74,0-82.63,6.97-107.32,17.78l-27.79.53v18.05c24.76-9.49,61.14-15.48,101.71-15.48,38.45,0,73.15,5.38,97.76,14.03l17.65-.32,19.7,4.6v26.98c0,3.51-1.19,6.92-3.44,10.2Z"/><path class="cls-1" d="m118.97,335.28h-1.38c-5.09,1.63-9.8,3.38-14.08,5.26l-21.8.42v40.47c7.08,7.68,20.1,14.49,37.26,19.83v-65.97Z"/><path class="cls-1" d="m125.4,349.41v53.71c4.38,1.2,9,2.31,13.81,3.32v-57.04h-13.81Z"/><ellipse class="cls-16" cx="210.83" cy="341.06" rx="135.11" ry="45.29"/><path class="cls-9" d="m178.7,385.06c10.3.84,21.06,1.29,32.13,1.29,74.62,0,135.11-20.28,135.11-45.29s-60.49-45.29-135.11-45.29c-.57,0-1.13,0-1.7,0,59.11,4.83,102.98,22.69,102.98,43.99,0,24.82-59.57,44.97-133.41,45.28Z"/><ellipse class="cls-4" cx="210.83" cy="340.42" rx="123.97" ry="38.86"/><path class="cls-18" d="m333.27,346.54c-8.44-18.89-60.18-33.42-122.76-33.42s-113.07,14.19-122.44,32.74c8.44,18.89,60.18,33.42,122.76,33.42s113.07-14.19,122.44-32.74Z"/><path class="cls-11" d="m183.64,316.01l-5.35,5.57-20.56-1.93-7.49,5.57-12.2,1.5-.43,4.07-13.7-1.5-1.5,6.85-10.06-.43-8.78,3.85-1.07,8.35-4.71-1.07-3.64.86v5.87c17.19,15,62.94,25.72,116.7,25.72,57.98,0,106.65-12.48,120.21-29.33l-4.16-3.33.43-5.57-12.63-.86,3.85-1.71-7.07-6.42-9.42,1.28-14.13-7.92-13.28.21-15.42-4.92-18.2,2.57.21-2.78-23.34-1.93-14.56,3.21,3.85-4.28-23.55-1.5Z"/><path class="cls-7" d="m183.64,316.01l-5.35,5.57-20.56-1.93-7.49,5.57-12.2,1.5-.43,4.07-8.47-.93c-4.7,4.1-7.27,8.53-7.27,13.14,0,16.42,32.48,30.46,78.4,36.15,3.48.09,7,.14,10.56.14,57.98,0,106.65-12.48,120.21-29.33l-4.16-3.33.43-5.57-12.63-.86,3.85-1.71-7.07-6.42-9.42,1.28-14.13-7.92-13.28.21-15.42-4.92-18.2,2.57.21-2.78-23.34-1.93-14.56,3.21,3.85-4.28-23.55-1.5Z"/><polygon class="cls-11" points="215.32 335.49 252.15 329.71 270.78 325.85 253.44 321.79 211.04 328.64 207.19 330.78 202.69 328.42 173.14 334.42 164.36 350.05 202.91 338.06 210.83 340.42 215.32 335.49"/><path class="cls-12" d="m326.88,344.05l-.43,5.57,2.84,2.27c.63-.64,1.22-1.29,1.74-1.94l-4.16-3.33.43-5.57-10.46-.71,1.25,1.14-3.85,1.71,12.63.86Z"/><polygon class="cls-12" points="217.89 318.57 206.17 321.16 202.91 324.78 217.47 321.57 240.8 323.5 240.59 326.28 258.79 323.71 274.21 328.64 287.48 328.42 301.61 336.35 311.04 335.06 316.03 339.6 318.53 338.49 311.46 332.06 302.04 333.35 287.91 325.43 274.64 325.64 259.22 320.72 241.02 323.29 241.23 320.5 217.89 318.57"/><polygon class="cls-12" points="177.85 324.57 183.21 319 204.61 320.36 207.19 317.5 183.64 316.01 178.28 321.57 157.73 319.65 150.23 325.21 138.03 326.71 137.71 329.69 149.8 328.21 157.3 322.64 177.85 324.57"/><path class="cls-12" d="m137.17,333.78l.32-3.01-8.36-.91c-4.61,4.02-7.16,8.35-7.26,12.86.91-3.44,3.25-6.74,6.83-9.87l8.47.93Z"/><path class="cls-11" d="m205.69,351.33l-11.56,8.03-3.85-6.1-15.96,21.47c5.59,1.24,11.52,2.34,17.74,3.28l5.93-7.41-1.13,8.09c1.13.15,2.27.3,3.42.44,3.48.09,7,.14,10.56.14,1.17,0,2.33,0,3.49-.02l19.32-5.45-10.66,5.28c8.06-.25,15.89-.73,23.41-1.44l18.72-16.05-11.55,15.3c5.92-.68,11.64-1.5,17.1-2.44,5.14-5.23,9.55-9.64,9.55-9.64l-1.28-5.14-7.07,6.1,9.31-13.81.96,10.6,17.34-16.38-19.62,26.51c11.72-2.47,22.03-5.55,30.45-9.09l6.19-11,.14,8.06c6.41-3.29,11.32-6.89,14.4-10.73l-4.16-3.33.41-5.3-1.61-.38-11-.75,2.73-1.22-10.23-2.43-.64,5.46-16.7,1.61-.32-10.28-13.17-1.28-2.89,9.96h-15.74v-7.39l-16.7,4.82-5.14,8.99,17.34,1.28-30.51,17.66-5.14.32,2.57-10.28-14.45-6.1Z"/><polygon class="cls-11" points="156.01 363.33 163.72 373.39 181.49 359.47 156.01 363.33"/><polygon class="cls-11" points="143.81 355.83 178.07 348.98 155.37 342.98 143.81 355.83"/><path class="cls-11" d="m174.43,340.41s15.2,5.57,15.84,5.57l-1.93-8.78-13.92,3.21Z"/><path class="cls-11" d="m230.96,332.49l-12.42-2.14s-12.2,11.35-12.2,12.2l-4.71,5.35,8.35.64,9.64-3.85-11.13.21,10.28-10.28,12.2-2.14Z"/><polygon class="cls-11" points="200.12 331.85 189.84 348.55 197.55 338.49 199.69 341.49 200.12 331.85"/><path class="cls-11" d="m122.18,351.55l32.76-2.57-17.34-2.57,18.63-9.64,3.85,3.64-1.28-7.92s-22.05,11.35-23.34,11.13l4.92-7.07,5.78.21-6.64-3.64-10.49,13.49.86-10.49-7.71,15.42Z"/><path class="cls-11" d="m117.9,363.54l21.63,3.64,14.35-7.71-22.7,4.5,11.56-10.06s-21.84,8.99-24.84,9.64Z"/><polygon class="cls-11" points="183.64 325.85 164.15 329.28 164.58 336.35 167.15 331.64 183.64 325.85"/><path class="cls-12" d="m191.24,343.9c0-2.75-5.3-4.98-11.83-4.98s-11.83,2.23-11.83,4.98c0,.89.55,1.72,1.52,2.44-.23-.39-.35-.81-.35-1.23,0-2.67,4.77-4.83,10.66-4.83s10.66,2.16,10.66,4.83c0,.43-.12.84-.35,1.23.97-.72,1.52-1.55,1.52-2.44Z"/><path class="cls-12" d="m194.77,333.62c0-2.75-5.3-4.98-11.83-4.98s-11.83,2.23-11.83,4.98c0,.89.55,1.72,1.52,2.44-.23-.39-.35-.81-.35-1.23,0-2.67,4.77-4.83,10.66-4.83s10.66,2.16,10.66,4.83c0,.43-.12.84-.35,1.23.97-.72,1.52-1.55,1.52-2.44Z"/><path class="cls-12" d="m242.95,336.62c0-2.75-5.3-4.98-11.83-4.98s-11.83,2.23-11.83,4.98c0,.89.55,1.72,1.52,2.44-.23-.39-.35-.81-.35-1.23,0-2.67,4.77-4.83,10.66-4.83s10.66,2.16,10.66,4.83c0,.43-.12.84-.35,1.23.97-.72,1.52-1.55,1.52-2.44Z"/><path class="cls-12" d="m231.92,343.79c0-2.05-3.95-3.72-8.83-3.72s-8.83,1.67-8.83,3.72c0,.66.41,1.28,1.13,1.82-.17-.29-.26-.6-.26-.92,0-1.99,3.56-3.61,7.96-3.61s7.96,1.62,7.96,3.61c0,.32-.09.63-.26.92.72-.54,1.13-1.16,1.13-1.82Z"/><path class="cls-8" d="m111.26,532.64c0-.89-.72-1.61-1.61-1.61s-1.61.72-1.61,1.61.72,1.61,1.61,1.61,1.61-.72,1.61-1.61Z"/><path class="cls-8" d="m108.69,523.97c0-.71-.58-1.28-1.28-1.28s-1.28.58-1.28,1.28.58,1.28,1.28,1.28,1.28-.58,1.28-1.28Z"/><path class="cls-8" d="m112.39,515.46c0-.62-.5-1.12-1.12-1.12s-1.12.5-1.12,1.12.5,1.12,1.12,1.12,1.12-.5,1.12-1.12Z"/><path class="cls-8" d="m106.12,510.08c0-.84-.68-1.53-1.53-1.53s-1.53.68-1.53,1.53.68,1.53,1.53,1.53,1.53-.68,1.53-1.53Z"/><path class="cls-8" d="m114.64,496.18c0-.62-.5-1.12-1.12-1.12s-1.12.5-1.12,1.12.5,1.12,1.12,1.12,1.12-.5,1.12-1.12Z"/><path class="cls-8" d="m118.33,500.76c0-.58-.47-1.04-1.04-1.04s-1.04.47-1.04,1.04.47,1.04,1.04,1.04,1.04-.47,1.04-1.04Z"/><path class="cls-8" d="m119.61,491.29c0-.4-.32-.72-.72-.72s-.72.32-.72.72.32.72.72.72.72-.32.72-.72Z"/><path class="cls-8" d="m119.29,484.78c0-.53-.43-.96-.96-.96s-.96.43-.96.96.43.96.96.96.96-.43.96-.96Z"/><circle class="cls-8" cx="121.3" cy="522.12" r="1.53"/><path class="cls-8" d="m125.07,529.03c0-.49-.4-.88-.88-.88s-.88.4-.88.88.4.88.88.88.88-.4.88-.88Z"/><path class="cls-20" d="m261.09,566.92c0-.58-.47-1.04-1.04-1.04s-1.04.47-1.04,1.04.47,1.04,1.04,1.04,1.04-.47,1.04-1.04Z"/><path class="cls-20" d="m262.38,556.49c0-.58-.47-1.04-1.04-1.04s-1.04.47-1.04,1.04.47,1.04,1.04,1.04,1.04-.47,1.04-1.04Z"/><path class="cls-20" d="m247.28,585.71c0-.93-.75-1.69-1.69-1.69s-1.69.75-1.69,1.69.76,1.69,1.69,1.69,1.69-.75,1.69-1.69Z"/><path class="cls-20" d="m215.81,682.63c0-.35-.29-.64-.64-.64s-.64.29-.64.64.29.64.64.64.64-.29.64-.64Z"/><path class="cls-20" d="m151.09,532.48c0-.71-.58-1.28-1.28-1.28s-1.28.58-1.28,1.28.58,1.28,1.28,1.28,1.28-.58,1.28-1.28Z"/><path class="cls-12" d="m182.99,357.33c0-3.9-7.29-7.07-16.27-7.07s-16.27,3.16-16.27,7.07c0,1.26.76,2.44,2.09,3.46-.32-.56-.49-1.15-.49-1.75,0-3.78,6.57-6.85,14.67-6.85s14.67,3.07,14.67,6.85c0,.61-.17,1.19-.49,1.75,1.33-1.02,2.09-2.2,2.09-3.46Z"/><path class="cls-17" d="m77.77,117.18c47.94,58.14,66.74,177.8,72.84,229.1l6.69-3.5,5.14,9.31,13.86-4.85c-2.64-17.49-7.3-45.42-14.3-77.63-15.7-72.3-34.81-128.55-56.82-167.18C53.82,12.23,28.66,2.96,25.99,0L0,26.3c.63.7,9.28,7.81,77.77,90.87Z"/><path class="cls-3" d="m156.88,342.99c-5.54-48.65-24.03-173.52-73.33-233.31C24.31,37.83,9.84,22.82,6.61,19.62l-3.83,3.88c4.65,4.75,21.05,22.46,76.07,89.18,49.13,59.59,67.66,183.81,73.27,232.81l4.77-2.5Z"/><path class="cls-17" d="m0,26.3l77.77,90.87C9.28,34.11.63,27.01,0,26.3Z"/><path class="cls-6" d="m150.62,268.31c8.48,35.1,14.05,65.14,16.92,81.98l8.76-3.06c-1.14-7.53-2.65-17-4.56-27.91-3.05-15.73-7.11-35.11-12.24-56.35-17.38-71.91-37.81-127.7-60.71-165.81C59.63,32.02,35.55,9.93,24.39,1.63l-6.83,6.91c11.92,9.4,35.44,32.55,72.35,93.97,22.9,38.11,43.33,93.9,60.71,165.81Z"/><path class="cls-13" d="m82.69,102.89h25.04c6.5,0,11.78,5.28,11.78,11.78v1.43c0,6.5-5.28,11.78-11.78,11.78h-25.04c-6.5,0-11.78-5.28-11.78-11.78v-1.43c0-6.5,5.28-11.78,11.78-11.78Z" transform="translate(-43.98 60.57) rotate(-28.98)"/><path class="cls-3" d="m80.51,109.24l-2.3,1.28c-5.67,3.14-7.73,10.34-4.6,16.01l.69,1.25c3.14,5.67,10.34,7.73,16.01,4.6l21.9-12.13c.68-.38,1.3-.81,1.87-1.29l-19.6,10.85c-5.67,3.14-12.87,1.07-16.01-4.6l-.69-1.25c-2.76-4.99-1.49-11.17,2.72-14.71Z"/><path class="cls-6" d="m109.32,120.88c5.67-3.14,7.73-10.34,4.6-16.01l-.69-1.25c-2.32-4.2-6.87-6.41-11.38-6.01-.59.21-1.17.46-1.74.77l-12.2,6.75c5.2-1.59,11.02.62,13.75,5.55l.69,1.25c2.53,4.56,1.67,10.11-1.71,13.75l8.67-4.8Z"/></svg>